<svg width="2583" height="2102" viewBox="0 0 2583 2102" fill="none" xmlns="http://www.w3.org/2000/svg">
<path d="M780.951 1010.08C785.683 957.739 790.249 905.386 795.195 853.069C799.465 807.901 804.166 762.774 808.678 717.629C813.189 672.492 817.701 627.355 822.212 582.218C826.723 537.08 830.34 491.828 836.108 446.852C839.176 422.931 843.32 398.505 851.644 376.035C868.247 331.217 902.652 303.124 948.746 293.652C975.136 288.229 1003.21 290.991 1031.9 291.344C1033.17 342.911 1033.07 393.201 1032.05 443.774C1007.61 461.051 998.971 485.816 1007.75 511.138C1016.13 535.336 1039.34 551.148 1064.88 550.067C1090.32 548.991 1111.65 531.412 1118.19 506.127C1124.64 481.227 1114.2 456.785 1091.11 441.745C1090.95 394.639 1090.83 348.693 1090.93 302.748C1090.94 298.418 1092.4 294.091 1094.44 289.876C1124.54 290.019 1153.4 290.098 1182.26 290.069C1285.95 289.964 1389.65 289.822 1494.01 290.64C1494.89 342.039 1495.11 392.493 1494.54 443.467C1470.71 458.973 1461.32 483.896 1469.14 509.301C1476.67 533.782 1499.41 550.412 1524.94 550.125C1550.28 549.84 1573.27 532.214 1579.88 508.011C1586.89 482.338 1576.73 457.33 1553.44 442.076C1553.41 390.608 1553.52 340.324 1553.62 290.039C1571.64 290.044 1589.68 290.557 1607.68 289.963C1672.11 287.838 1735.49 340.227 1745.37 407.308C1750.62 442.908 1752.66 478.975 1756.45 514.798C1760.66 554.585 1765.36 594.32 1769.57 634.107C1771.82 655.376 1773.3 676.726 1775.46 698.006C1778.78 730.727 1782.52 763.406 1785.82 796.129C1788.01 817.855 1789.52 839.648 1791.71 861.373C1794.97 893.652 1798.8 925.874 1801.92 958.166C1803.51 974.611 1804.08 991.154 1804.5 1009.34C1800.33 1016.17 1796.43 1021.12 1793.26 1026.5C1764.61 1075.15 1720.78 1099.04 1665.67 1099.21C1417.23 1099.95 1168.8 1099.91 920.361 1099.21C869.099 1099.07 827.239 1077.26 797.671 1034.2C792.132 1026.14 786.526 1018.12 780.951 1010.08Z" fill="#EC8824"/>
<path d="M780.095 1010.82C786.525 1018.12 792.131 1026.14 797.67 1034.2C827.238 1077.26 869.098 1099.07 920.36 1099.21C1168.79 1099.91 1417.23 1099.95 1665.67 1099.21C1720.78 1099.04 1764.61 1075.15 1793.26 1026.5C1796.43 1021.12 1800.33 1016.17 1804.72 1010.55C1806.85 1019.15 1809.16 1028.23 1809.28 1037.33C1809.72 1070.69 1815.04 1105.26 1808.2 1137.17C1796.33 1192.54 1757.78 1226.7 1702.47 1240.53C1694.36 1242.56 1685.73 1243.27 1677.34 1243.27C1421.24 1243.41 1165.13 1243.81 909.028 1243.04C856.67 1242.88 818.301 1215.93 791.36 1171.36C770.33 1136.57 771.075 1099.32 775.595 1061.09C777.536 1044.67 778.068 1028.08 780.095 1010.82Z" fill="#E86629"/>
<path d="M1093.19 289.761C1092.4 294.09 1090.94 298.417 1090.93 302.747C1090.83 348.692 1090.95 394.638 1091 443.119C1090.91 451.939 1091.12 458.243 1090.69 464.503C1089.58 480.722 1077.14 492.556 1061.82 492.293C1046.92 492.036 1034.91 480.599 1033.63 465.005C1033.04 457.864 1033.16 450.665 1032.96 443.491C1033.07 393.201 1033.17 342.91 1033.15 291.345C1033.9 254.322 1032.02 218.703 1043.53 183.541C1065.36 116.884 1105.88 66.5333 1166.85 32.3394C1212.07 6.9783 1260.83 -2.84065 1312.2 0.698136C1367.45 4.50398 1416.33 24.6557 1459.49 59.5183C1496.42 89.3521 1523.89 125.949 1538.13 171.103C1545.58 194.752 1549.45 219.694 1553.07 244.327C1555.14 258.443 1553.47 273.11 1553.55 288.784C1553.52 340.323 1553.41 390.608 1553.25 443.385C1553.06 453.074 1553.57 460.358 1552.62 467.446C1550.66 482.092 1537.78 492.675 1523.5 492.231C1508.95 491.778 1497.24 480.791 1495.97 465.872C1495.33 458.266 1495.51 450.59 1495.32 442.946C1495.11 392.492 1494.89 342.038 1494.05 289.407C1492.61 268.393 1493.38 249.325 1490.68 230.762C1482.73 176.161 1455.24 132.582 1410.84 100.325C1371.12 71.4653 1326.58 57.9191 1277.01 62.7698C1206.57 69.6625 1153.91 104.369 1118.13 164.722C1095.28 203.253 1090.49 245.881 1093.19 289.761Z" fill="#2D4A60"/>
<path d="M1032.05 443.773C1033.16 450.665 1033.03 457.864 1033.62 465.005C1034.91 480.599 1046.92 492.036 1061.82 492.293C1077.14 492.557 1089.58 480.722 1090.69 464.503C1091.12 458.243 1090.91 451.939 1091.1 444.28C1114.2 456.784 1124.63 481.226 1118.19 506.126C1111.65 531.411 1090.32 548.991 1064.88 550.067C1039.34 551.147 1016.13 535.335 1007.74 511.138C998.97 485.816 1007.61 461.05 1032.05 443.773Z" fill="#E5EDED"/>
<path d="M1494.54 443.467C1495.51 450.591 1495.33 458.266 1495.97 465.872C1497.24 480.791 1508.95 491.778 1523.5 492.231C1537.78 492.676 1550.66 482.092 1552.62 467.447C1553.57 460.358 1553.05 453.074 1553.39 444.569C1576.73 457.329 1586.89 482.338 1579.88 508.01C1573.27 532.213 1550.28 549.84 1524.94 550.124C1499.41 550.411 1476.67 533.781 1469.14 509.3C1461.32 483.895 1470.71 458.972 1494.54 443.467Z" fill="#E6EDED"/>
<path d="M1379.53 709.93C1378.11 695.607 1372.02 684.48 1361.25 676.55C1350.47 668.619 1335.86 664.653 1317.39 664.653C1304.84 664.653 1294.25 666.429 1285.61 669.98C1276.97 673.413 1270.34 678.207 1265.72 684.362C1261.22 690.517 1258.97 697.501 1258.97 705.314C1258.74 711.824 1260.1 717.506 1263.06 722.359C1266.14 727.213 1270.34 731.415 1275.66 734.966C1280.99 738.399 1287.15 741.417 1294.13 744.021C1301.11 746.507 1308.57 748.638 1316.5 750.413L1349.17 758.226C1365.03 761.777 1379.59 766.512 1392.85 772.43C1406.11 778.349 1417.59 785.629 1427.3 794.27C1437 802.911 1444.52 813.091 1449.85 824.81C1455.29 836.528 1458.07 849.963 1458.19 865.115C1458.07 887.369 1452.39 906.663 1441.15 922.998C1430.02 939.215 1413.92 951.822 1392.85 960.818C1371.9 969.696 1346.63 974.135 1317.03 974.135C1287.68 974.135 1262.11 969.637 1240.33 960.641C1218.67 951.644 1201.74 938.328 1189.55 920.69C1177.48 902.935 1171.14 880.977 1170.55 854.817H1244.95C1245.78 867.009 1249.27 877.189 1255.42 885.356C1261.7 893.406 1270.04 899.502 1280.46 903.645C1290.99 907.669 1302.89 909.682 1316.15 909.682C1329.17 909.682 1340.47 907.788 1350.06 904C1359.77 900.212 1367.28 894.945 1372.61 888.197C1377.94 881.45 1380.6 873.697 1380.6 864.937C1380.6 856.77 1378.17 849.904 1373.32 844.341C1368.59 838.777 1361.6 834.043 1352.37 830.136C1343.25 826.23 1332.07 822.679 1318.81 819.483L1279.22 809.54C1248.56 802.082 1224.35 790.423 1206.59 774.561C1188.84 758.699 1180.02 737.333 1180.14 710.463C1180.02 688.446 1185.88 669.211 1197.72 652.757C1209.67 636.303 1226.07 623.46 1246.9 614.227C1267.73 604.994 1291.41 600.378 1317.92 600.378C1344.91 600.378 1368.47 604.994 1388.59 614.227C1408.83 623.46 1424.58 636.303 1435.82 652.757C1447.07 669.211 1452.87 688.268 1453.22 709.93H1379.53Z" fill="white"/>
<path d="M90.6 1729.4C99 1744.6 108.4 1757.8 118.8 1769C129.6 1780.2 141.2 1788.8 153.6 1794.8C166.4 1800.8 179.8 1803.8 193.8 1803.8C208.6 1803.8 220.8 1800.2 230.4 1793C240 1785.4 244.8 1775.2 244.8 1762.4C244.8 1751.6 242 1743 236.4 1736.6C230.8 1729.8 221.8 1723.4 209.4 1717.4C197 1711.4 180.6 1704.6 160.2 1697C150.2 1693.4 138.6 1688.4 125.4 1682C112.6 1675.6 100.4 1667.4 88.8 1657.4C77.2 1647 67.6 1634.6 60 1620.2C52.4 1605.4 48.6 1587.6 48.6 1566.8C48.6 1542 55 1520.6 67.8 1502.6C81 1484.6 98.6 1471 120.6 1461.8C143 1452.2 167.8 1447.4 195 1447.4C223 1447.4 247.2 1452 267.6 1461.2C288.4 1470.4 305.6 1482 319.2 1496C332.8 1510 343.2 1524.2 350.4 1538.6L273 1581.8C267 1571.8 260 1563.2 252 1556C244.4 1548.4 235.8 1542.6 226.2 1538.6C217 1534.2 207 1532 196.2 1532C181.8 1532 170.8 1535.2 163.2 1541.6C155.6 1547.6 151.8 1555.2 151.8 1564.4C151.8 1574 155.4 1582.4 162.6 1589.6C170.2 1596.8 180.8 1603.4 194.4 1609.4C208.4 1615.4 225.2 1621.8 244.8 1628.6C259.6 1634.2 273.4 1640.8 286.2 1648.4C299 1655.6 310.2 1664.4 319.8 1674.8C329.8 1685.2 337.6 1697.2 343.2 1710.8C348.8 1724.4 351.6 1740 351.6 1757.6C351.6 1778.8 347.2 1797.8 338.4 1814.6C330 1831 318.4 1844.8 303.6 1856C289.2 1867.2 272.6 1875.6 253.8 1881.2C235.4 1887.2 216.4 1890.2 196.8 1890.2C169.6 1890.2 144.2 1885.4 120.6 1875.8C97.4 1865.8 77.2 1852.4 60 1835.6C42.8 1818.8 29.4 1800.4 19.8 1780.4L90.6 1729.4ZM589.8 1709C589.8 1692.6 586.6 1680 580.2 1671.2C574.2 1662.4 564 1658 549.6 1658C540 1658 531.6 1660 524.4 1664C517.2 1668 511.6 1673.8 507.6 1681.4C503.6 1689 501.6 1698.2 501.6 1709V1877H410.4V1601H501.6V1642.4C509.6 1627.2 520.4 1615.4 534 1607C548 1598.6 565.2 1594.4 585.6 1594.4C620 1594.4 645 1603.6 660.6 1622C676.2 1640.4 684 1666.2 684 1699.4V1877H589.8V1709ZM825.717 1790.6C825.717 1797.8 827.517 1804 831.117 1809.2C834.717 1814 839.517 1817.8 845.517 1820.6C851.517 1823 858.117 1824.2 865.317 1824.2C875.717 1824.2 885.317 1822 894.117 1817.6C902.917 1813.2 910.117 1806.6 915.717 1797.8C921.317 1789 924.117 1778.2 924.117 1765.4L933.717 1801.4C933.717 1819 928.917 1834 919.317 1846.4C909.717 1858.4 897.317 1867.6 882.117 1874C866.917 1880 850.517 1883 832.917 1883C815.317 1883 798.917 1879.8 783.717 1873.4C768.917 1866.6 756.917 1856.6 747.717 1843.4C738.917 1830.2 734.517 1814.2 734.517 1795.4C734.517 1769 743.917 1748.2 762.717 1733C781.517 1717.4 808.117 1709.6 842.517 1709.6C859.317 1709.6 874.317 1711.2 887.517 1714.4C901.117 1717.6 912.717 1721.6 922.317 1726.4C931.917 1731.2 939.117 1736.2 943.917 1741.4V1781.6C934.317 1774.4 923.117 1769 910.317 1765.4C897.917 1761.4 884.717 1759.4 870.717 1759.4C859.917 1759.4 851.317 1760.6 844.917 1763C838.517 1765.4 833.717 1769 830.517 1773.8C827.317 1778.2 825.717 1783.8 825.717 1790.6ZM785.517 1685.6L754.917 1625C770.517 1617.4 789.317 1610.2 811.317 1603.4C833.317 1596.6 857.317 1593.2 883.317 1593.2C907.717 1593.2 929.517 1596.8 948.717 1604C967.917 1610.8 983.117 1620.8 994.317 1634C1005.52 1647.2 1011.12 1663.4 1011.12 1682.6V1877H924.117V1703C924.117 1696.2 922.917 1690.4 920.517 1685.6C918.517 1680.4 915.317 1676 910.917 1672.4C906.517 1668.8 900.917 1666.2 894.117 1664.6C887.717 1663 880.317 1662.2 871.917 1662.2C859.517 1662.2 847.317 1663.6 835.317 1666.4C823.717 1669.2 813.517 1672.6 804.717 1676.6C795.917 1680.2 789.517 1683.2 785.517 1685.6ZM1168.95 2009H1078.35V1601H1168.95V2009ZM1394.55 1739C1394.55 1771 1388.15 1798 1375.35 1820C1362.95 1842 1346.75 1858.6 1326.75 1869.8C1307.15 1881 1285.95 1886.6 1263.15 1886.6C1239.15 1886.6 1218.35 1880.6 1200.75 1868.6C1183.55 1856.2 1170.35 1839 1161.15 1817C1151.95 1794.6 1147.35 1768.6 1147.35 1739C1147.35 1709 1151.95 1683 1161.15 1661C1170.35 1639 1183.55 1622 1200.75 1610C1218.35 1597.6 1239.15 1591.4 1263.15 1591.4C1285.95 1591.4 1307.15 1597 1326.75 1608.2C1346.75 1619.4 1362.95 1636 1375.35 1658C1388.15 1679.6 1394.55 1706.6 1394.55 1739ZM1299.15 1739C1299.15 1724.6 1296.15 1712.4 1290.15 1702.4C1284.15 1692.4 1276.15 1684.8 1266.15 1679.6C1256.15 1674.4 1245.15 1671.8 1233.15 1671.8C1222.75 1671.8 1212.55 1674.4 1202.55 1679.6C1192.95 1684.4 1184.95 1691.8 1178.55 1701.8C1172.15 1711.8 1168.95 1724.2 1168.95 1739C1168.95 1753.8 1172.15 1766.2 1178.55 1776.2C1184.95 1786.2 1192.95 1793.8 1202.55 1799C1212.55 1803.8 1222.75 1806.2 1233.15 1806.2C1245.15 1806.2 1256.15 1803.6 1266.15 1798.4C1276.15 1793.2 1284.15 1785.6 1290.15 1775.6C1296.15 1765.6 1299.15 1753.4 1299.15 1739ZM1477.47 1749.8C1487.07 1766.6 1497.07 1781.4 1507.47 1794.2C1518.27 1807 1530.27 1817 1543.47 1824.2C1556.67 1831.4 1571.67 1835 1588.47 1835C1610.87 1835 1628.87 1828.8 1642.47 1816.4C1656.07 1804 1662.87 1788.2 1662.87 1769C1662.87 1750.2 1658.47 1735.2 1649.67 1724C1640.87 1712.8 1629.27 1703.8 1614.87 1697C1600.87 1689.8 1585.87 1683.4 1569.87 1677.8C1559.47 1674.2 1547.87 1669.6 1535.07 1664C1522.27 1658 1510.07 1650.6 1498.47 1641.8C1486.87 1632.6 1477.27 1621.4 1469.67 1608.2C1462.47 1595 1458.87 1578.8 1458.87 1559.6C1458.87 1538.8 1464.07 1520.2 1474.47 1503.8C1484.87 1487.4 1499.27 1474.6 1517.67 1465.4C1536.07 1455.8 1557.07 1451 1580.67 1451C1603.47 1451 1623.27 1455.4 1640.07 1464.2C1657.27 1472.6 1671.87 1483.6 1683.87 1497.2C1695.87 1510.4 1705.27 1524.4 1712.07 1539.2L1668.27 1564.4C1663.07 1554 1656.47 1543.8 1648.47 1533.8C1640.47 1523.8 1630.67 1515.6 1619.07 1509.2C1607.87 1502.8 1594.07 1499.6 1577.67 1499.6C1554.87 1499.6 1538.27 1505.2 1527.87 1516.4C1517.47 1527.2 1512.27 1539.4 1512.27 1553C1512.27 1564.6 1515.27 1575.4 1521.27 1585.4C1527.27 1595 1537.27 1604.2 1551.27 1613C1565.67 1621.4 1585.07 1629.8 1609.47 1638.2C1620.67 1642.2 1632.47 1647.4 1644.87 1653.8C1657.27 1660.2 1668.67 1668.4 1679.07 1678.4C1689.87 1688 1698.67 1699.8 1705.47 1713.8C1712.27 1727.4 1715.67 1743.8 1715.67 1763C1715.67 1781.4 1712.07 1798 1704.87 1812.8C1698.07 1827.6 1688.47 1840.2 1676.07 1850.6C1664.07 1861 1650.27 1869 1634.67 1874.6C1619.47 1880.2 1603.47 1883 1586.67 1883C1563.87 1883 1542.67 1878.2 1523.07 1868.6C1503.87 1858.6 1486.87 1845.6 1472.07 1829.6C1457.67 1813.2 1445.87 1795.8 1436.67 1777.4L1477.47 1749.8ZM1809.18 1791.8C1809.18 1802.2 1811.58 1811.2 1816.38 1818.8C1821.58 1826.4 1828.58 1832.2 1837.38 1836.2C1846.58 1839.8 1856.98 1841.6 1868.58 1841.6C1883.38 1841.6 1896.58 1838.6 1908.18 1832.6C1920.18 1826.6 1929.58 1818.2 1936.38 1807.4C1943.58 1796.2 1947.18 1783.4 1947.18 1769L1956.78 1805C1956.78 1822.6 1951.38 1837.2 1940.58 1848.8C1930.18 1860.4 1917.18 1869 1901.58 1874.6C1886.38 1880.2 1871.18 1883 1855.98 1883C1839.18 1883 1823.38 1879.6 1808.58 1872.8C1794.18 1865.6 1782.58 1855.4 1773.78 1842.2C1764.98 1829 1760.58 1813 1760.58 1794.2C1760.58 1767.4 1769.98 1746 1788.78 1730C1807.98 1713.6 1834.58 1705.4 1868.58 1705.4C1888.58 1705.4 1905.18 1707.8 1918.38 1712.6C1931.98 1717 1942.78 1722.2 1950.78 1728.2C1958.78 1733.8 1964.18 1738.4 1966.98 1742V1770.2C1952.98 1760.6 1938.58 1753.8 1923.78 1749.8C1908.98 1745.4 1893.18 1743.2 1876.38 1743.2C1860.78 1743.2 1847.98 1745.2 1837.98 1749.2C1828.38 1753.2 1821.18 1758.8 1816.38 1766C1811.58 1773.2 1809.18 1781.8 1809.18 1791.8ZM1801.98 1664.6L1778.58 1629.2C1788.98 1621.6 1803.18 1614 1821.18 1606.4C1839.58 1598.8 1861.58 1595 1887.18 1595C1908.78 1595 1927.58 1598.4 1943.58 1605.2C1959.98 1611.6 1972.58 1621 1981.38 1633.4C1990.58 1645.8 1995.18 1661 1995.18 1679V1877H1947.18V1685.6C1947.18 1676 1945.58 1668.2 1942.38 1662.2C1939.18 1655.8 1934.58 1650.8 1928.58 1647.2C1922.98 1643.6 1916.38 1641 1908.78 1639.4C1901.18 1637.8 1893.18 1637 1884.78 1637C1871.18 1637 1858.78 1638.6 1847.58 1641.8C1836.78 1645 1827.58 1648.8 1819.98 1653.2C1812.38 1657.6 1806.38 1661.4 1801.98 1664.6ZM2098.05 1739C2098.05 1758.2 2102.05 1775.2 2110.05 1790C2118.45 1804.8 2129.65 1816.6 2143.65 1825.4C2158.05 1833.8 2174.25 1838 2192.25 1838C2207.05 1838 2220.85 1835.8 2233.65 1831.4C2246.85 1826.6 2258.25 1820.4 2267.85 1812.8C2277.45 1804.8 2284.25 1796.4 2288.25 1787.6V1847.6C2278.65 1858.8 2264.85 1867.6 2246.85 1874C2229.25 1880 2211.05 1883 2192.25 1883C2165.45 1883 2141.25 1876.8 2119.65 1864.4C2098.05 1852 2080.85 1835 2068.05 1813.4C2055.65 1791.4 2049.45 1766.6 2049.45 1739C2049.45 1711 2055.65 1686.2 2068.05 1664.6C2080.85 1643 2098.05 1626 2119.65 1613.6C2141.25 1601.2 2165.45 1595 2192.25 1595C2211.05 1595 2229.25 1598.2 2246.85 1604.6C2264.85 1610.6 2278.65 1619.2 2288.25 1630.4V1690.4C2284.25 1681.2 2277.45 1672.8 2267.85 1665.2C2258.25 1657.6 2246.85 1651.6 2233.65 1647.2C2220.85 1642.4 2207.05 1640 2192.25 1640C2174.25 1640 2158.05 1644.2 2143.65 1652.6C2129.65 1661 2118.45 1672.8 2110.05 1688C2102.05 1702.8 2098.05 1719.8 2098.05 1739ZM2359.97 1409H2407.97V1877H2359.97V1409ZM2509.97 1601H2569.97L2449.97 1715L2581.97 1877H2521.97L2389.97 1715L2509.97 1601Z" fill="black"/>
</svg>
