<svg width="4319" height="868" viewBox="0 0 4319 868" fill="none" xmlns="http://www.w3.org/2000/svg">
<path d="M869.738 163.62H206.523L182.969 40.065C178.544 16.85 158.178 0 134.544 0H16.049C7.185 0 0 7.18501 0 16.049C0 24.913 7.185 32.098 16.049 32.098H134.544C142.789 32.098 149.894 37.976 151.438 46.076L253.294 580.377L230.838 621.743C218.183 645.054 218.725 672.58 232.288 695.374C245.851 718.17 269.784 731.778 296.308 731.778H323.577C297.681 742.18 279.387 767.507 279.387 797.123C279.387 836.01 310.911 867.534 349.798 867.534C388.685 867.534 420.209 836.01 420.209 797.123C420.209 767.507 401.915 742.179 376.019 731.778H711.747C685.851 742.18 667.557 767.507 667.557 797.123C667.557 836.01 699.081 867.534 737.968 867.534C776.855 867.534 808.379 836.01 808.379 797.123C808.379 767.507 790.085 742.179 764.189 731.778H827.599C836.462 731.778 843.648 724.592 843.648 715.729C843.648 706.866 836.462 699.68 827.599 699.68H296.309C281.214 699.68 267.593 691.934 259.874 678.961C252.155 665.988 251.847 650.322 259.049 637.056L279.684 599.045H788.021C818.543 599.045 845.47 578.479 853.499 549.032L935.223 249.35C940.834 228.771 936.625 207.245 923.675 190.293C910.726 173.342 891.067 163.62 869.738 163.62ZM703.252 435.443H573.808V331.015H721.683L703.252 435.443ZM754.968 331.015H879.68L851.202 435.443H736.537L754.968 331.015ZM283.411 566.947L264.461 467.542H383.963L401.507 566.947H283.411ZM541.028 331.015V435.443H411.584L393.153 331.015H541.028ZM387.488 298.917L369.274 195.719H541.027V298.917H387.488ZM378.298 435.443H258.342L238.434 331.015H359.867L378.298 435.443ZM417.249 467.541H541.028V566.946H434.793L417.249 467.541ZM573.808 467.541H697.587L680.043 566.946H573.808V467.541ZM573.808 298.917V195.719H745.562L727.348 298.917H573.808ZM335.989 195.719L354.203 298.917H232.315L212.642 195.719H335.989ZM822.529 540.587C818.297 556.108 804.107 566.947 788.02 566.947H713.327L730.871 467.542H842.448L822.529 540.587ZM904.253 240.906L888.433 298.916H760.633L778.847 195.718H869.738C880.98 195.718 891.341 200.842 898.166 209.777C904.992 218.714 907.21 230.06 904.253 240.906Z" fill="#EC8824"/>
<path d="M1716.64 275.134C1714.94 257.946 1707.63 244.594 1694.7 235.077C1681.77 225.56 1664.23 220.801 1642.07 220.801C1627.01 220.801 1614.3 222.932 1603.93 227.193C1593.56 231.312 1585.61 237.065 1580.07 244.452C1574.67 251.838 1571.97 260.219 1571.97 269.594C1571.69 277.406 1573.32 284.224 1576.87 290.048C1580.57 295.872 1585.61 300.915 1592 305.176C1598.39 309.295 1605.78 312.918 1614.16 316.043C1622.54 319.026 1631.49 321.582 1641.01 323.713L1680.21 333.088C1699.24 337.349 1716.72 343.031 1732.62 350.134C1748.53 357.236 1762.31 365.972 1773.96 376.341C1785.61 386.71 1794.63 398.926 1801.02 412.989C1807.55 427.051 1810.89 443.173 1811.03 461.355C1810.89 488.06 1804.07 511.213 1790.58 530.815C1777.23 550.276 1757.91 565.403 1732.62 576.199C1707.48 586.852 1677.16 592.179 1641.64 592.179C1606.42 592.179 1575.74 586.781 1549.6 575.986C1523.61 565.19 1503.29 549.21 1488.66 528.045C1474.17 506.739 1466.57 480.389 1465.86 448.997H1555.14C1556.13 463.628 1560.32 475.844 1567.71 485.645C1575.24 495.304 1585.25 502.619 1597.75 507.591C1610.39 512.42 1624.67 514.835 1640.58 514.835C1656.2 514.835 1669.77 512.562 1681.28 508.017C1692.92 503.472 1701.94 497.151 1708.34 489.054C1714.73 480.957 1717.92 471.653 1717.92 461.142C1717.92 451.341 1715.01 443.102 1709.19 436.426C1703.51 429.75 1695.13 424.068 1684.05 419.381C1673.11 414.693 1659.68 410.432 1643.78 406.597L1596.26 394.665C1559.47 385.716 1530.42 371.724 1509.12 352.69C1487.81 333.656 1477.23 308.017 1477.37 275.773C1477.23 249.352 1484.26 226.27 1498.46 206.526C1512.81 186.781 1532.48 171.369 1557.48 160.29C1582.48 149.21 1610.89 143.67 1642.71 143.67C1675.1 143.67 1703.36 149.21 1727.51 160.29C1751.8 171.369 1770.69 186.781 1784.19 206.526C1797.68 226.27 1804.64 249.139 1805.07 275.134H1716.64ZM1962.15 396.795V586H1871.39V258.727H1957.89V316.469H1961.73C1968.97 297.435 1981.12 282.378 1998.16 271.298C2015.21 260.077 2035.87 254.466 2060.16 254.466C2082.89 254.466 2102.71 259.438 2119.61 269.381C2136.51 279.324 2149.65 293.528 2159.03 311.994C2168.4 330.318 2173.09 352.193 2173.09 377.619V586H2082.32V393.812C2082.47 373.784 2077.35 358.159 2066.98 346.938C2056.61 335.574 2042.34 329.892 2024.16 329.892C2011.94 329.892 2001.14 332.52 1991.77 337.776C1982.54 343.031 1975.29 350.702 1970.04 360.787C1964.92 370.73 1962.29 382.733 1962.15 396.795ZM2337.95 592.179C2317.07 592.179 2298.46 588.557 2282.13 581.312C2265.79 573.926 2252.87 563.06 2243.35 548.713C2233.97 534.224 2229.29 516.185 2229.29 494.594C2229.29 476.412 2232.63 461.142 2239.3 448.784C2245.98 436.426 2255.07 426.483 2266.57 418.955C2278.08 411.426 2291.15 405.744 2305.78 401.909C2320.55 398.074 2336.03 395.375 2352.23 393.812C2371.26 391.824 2386.6 389.977 2398.25 388.273C2409.9 386.426 2418.35 383.727 2423.61 380.176C2428.86 376.625 2431.49 371.369 2431.49 364.409V363.131C2431.49 349.636 2427.23 339.196 2418.7 331.81C2410.32 324.423 2398.39 320.73 2382.91 320.73C2366.57 320.73 2353.58 324.352 2343.92 331.597C2334.26 338.699 2327.87 347.648 2324.74 358.443L2240.79 351.625C2245.05 331.739 2253.43 314.551 2265.93 300.062C2278.43 285.432 2294.56 274.21 2314.3 266.398C2334.19 258.443 2357.2 254.466 2383.34 254.466C2401.52 254.466 2418.92 256.597 2435.54 260.858C2452.3 265.119 2467.14 271.724 2480.07 280.673C2493.14 289.622 2503.43 301.128 2510.96 315.19C2518.49 329.111 2522.26 345.801 2522.26 365.261V586H2436.18V540.616H2433.62C2428.36 550.844 2421.33 559.864 2412.53 567.676C2403.72 575.347 2393.14 581.384 2380.78 585.787C2368.42 590.048 2354.14 592.179 2337.95 592.179ZM2363.95 529.537C2377.3 529.537 2389.09 526.909 2399.32 521.653C2409.54 516.256 2417.57 509.011 2423.39 499.92C2429.22 490.83 2432.13 480.531 2432.13 469.026V434.295C2429.29 436.142 2425.38 437.847 2420.41 439.409C2415.58 440.83 2410.11 442.179 2404 443.457C2397.89 444.594 2391.79 445.659 2385.68 446.653C2379.57 447.506 2374.03 448.287 2369.06 448.997C2358.41 450.56 2349.1 453.045 2341.15 456.455C2333.19 459.864 2327.01 464.48 2322.61 470.304C2318.21 475.986 2316.01 483.088 2316.01 491.611C2316.01 503.969 2320.48 513.415 2329.43 519.949C2338.52 526.341 2350.03 529.537 2363.95 529.537ZM2592.67 708.727V258.727H2682.16V313.699H2686.21C2690.19 304.892 2695.94 295.943 2703.47 286.852C2711.14 277.619 2721.08 269.949 2733.3 263.841C2745.66 257.591 2761 254.466 2779.32 254.466C2803.19 254.466 2825.2 260.716 2845.37 273.216C2865.54 285.574 2881.67 304.253 2893.74 329.253C2905.81 354.111 2911.85 385.29 2911.85 422.79C2911.85 459.295 2905.96 490.119 2894.17 515.261C2882.52 540.261 2866.61 559.224 2846.44 572.151C2826.41 584.935 2803.97 591.327 2779.11 591.327C2761.5 591.327 2746.51 588.415 2734.15 582.591C2721.94 576.767 2711.92 569.452 2704.11 560.645C2696.3 551.696 2690.33 542.676 2686.21 533.585H2683.44V708.727H2592.67ZM2681.52 422.364C2681.52 441.824 2684.22 458.798 2689.62 473.287C2695.02 487.776 2702.83 499.068 2713.06 507.165C2723.29 515.119 2735.71 519.097 2750.35 519.097C2765.12 519.097 2777.62 515.048 2787.85 506.952C2798.07 498.713 2805.81 487.349 2811.07 472.861C2816.47 458.23 2819.17 441.398 2819.17 422.364C2819.17 403.472 2816.54 386.852 2811.28 372.506C2806.03 358.159 2798.29 346.937 2788.06 338.841C2777.83 330.744 2765.26 326.696 2750.35 326.696C2735.57 326.696 2723.07 330.602 2712.85 338.415C2702.76 346.227 2695.02 357.307 2689.62 371.653C2684.22 386 2681.52 402.903 2681.52 422.364ZM3227.62 258.727C3225.06 237.136 3214.69 220.375 3196.51 208.443C3178.33 196.511 3156.03 190.545 3129.61 190.545C3110.29 190.545 3093.38 193.67 3078.9 199.92C3064.55 206.17 3053.33 214.764 3045.23 225.702C3037.28 236.639 3033.3 249.068 3033.3 262.989C3033.3 274.636 3036.07 284.651 3041.61 293.031C3047.29 301.27 3054.54 308.159 3063.34 313.699C3072.15 319.097 3081.38 323.571 3091.04 327.122C3100.7 330.531 3109.58 333.301 3117.67 335.432L3161.99 347.364C3173.36 350.347 3186 354.466 3199.92 359.722C3213.98 364.977 3227.4 372.151 3240.19 381.241C3253.12 390.19 3263.77 401.696 3272.15 415.759C3280.53 429.821 3284.72 447.08 3284.72 467.534C3284.72 491.114 3278.54 512.42 3266.18 531.455C3253.97 550.489 3236.07 565.616 3212.49 576.838C3189.05 588.06 3160.57 593.67 3127.05 593.67C3095.8 593.67 3068.74 588.628 3045.87 578.543C3023.14 568.457 3005.25 554.395 2992.18 536.355C2979.25 518.315 2971.94 497.364 2970.23 473.5H3024.78C3026.2 489.977 3031.74 503.614 3041.4 514.409C3051.2 525.062 3063.56 533.017 3078.47 538.273C3093.53 543.386 3109.72 545.943 3127.05 545.943C3147.22 545.943 3165.33 542.676 3181.38 536.142C3197.43 529.466 3210.15 520.233 3219.52 508.443C3228.9 496.511 3233.58 482.591 3233.58 466.682C3233.58 452.193 3229.54 440.403 3221.44 431.312C3213.34 422.222 3202.69 414.835 3189.48 409.153C3176.27 403.472 3161.99 398.5 3146.65 394.239L3092.96 378.898C3058.87 369.097 3031.88 355.105 3011.99 336.923C2992.11 318.741 2982.16 294.949 2982.16 265.545C2982.16 241.114 2988.77 219.807 3001.98 201.625C3015.33 183.301 3033.23 169.097 3055.67 159.011C3078.26 148.784 3103.47 143.67 3131.31 143.67C3159.44 143.67 3184.44 148.713 3206.31 158.798C3228.19 168.741 3245.52 182.378 3258.3 199.707C3271.23 217.037 3278.04 236.71 3278.75 258.727H3227.62ZM3461.09 593.67C3440.35 593.67 3421.53 589.764 3404.62 581.952C3387.72 573.997 3374.3 562.562 3364.35 547.648C3354.41 532.591 3349.44 514.409 3349.44 493.102C3349.44 474.352 3353.13 459.153 3360.52 447.506C3367.91 435.716 3377.78 426.483 3390.14 419.807C3402.49 413.131 3416.13 408.159 3431.04 404.892C3446.1 401.483 3461.23 398.784 3476.43 396.795C3496.31 394.239 3512.44 392.321 3524.79 391.043C3537.29 389.622 3546.39 387.278 3552.07 384.011C3557.89 380.744 3560.8 375.062 3560.8 366.966V365.261C3560.8 344.239 3555.05 327.903 3543.54 316.256C3532.18 304.608 3514.92 298.784 3491.77 298.784C3467.76 298.784 3448.94 304.04 3435.31 314.551C3421.67 325.062 3412.08 336.284 3406.54 348.216L3358.81 331.17C3367.34 311.284 3378.7 295.801 3392.91 284.722C3407.25 273.5 3422.88 265.687 3439.78 261.284C3456.83 256.739 3473.59 254.466 3490.06 254.466C3500.58 254.466 3512.65 255.744 3526.29 258.301C3540.06 260.716 3553.35 265.759 3566.13 273.429C3579.06 281.099 3589.78 292.676 3598.3 308.159C3606.83 323.642 3611.09 344.381 3611.09 370.375V586H3560.8V541.682H3558.25C3554.84 548.784 3549.16 556.384 3541.2 564.48C3533.25 572.577 3522.66 579.466 3509.45 585.148C3496.24 590.83 3480.12 593.67 3461.09 593.67ZM3468.76 548.5C3488.64 548.5 3505.41 544.594 3519.04 536.781C3532.82 528.969 3543.19 518.884 3550.15 506.526C3557.25 494.168 3560.8 481.17 3560.8 467.534V421.511C3558.67 424.068 3553.99 426.412 3546.74 428.543C3539.64 430.531 3531.4 432.307 3522.02 433.869C3512.79 435.29 3503.77 436.568 3494.97 437.705C3486.3 438.699 3479.27 439.551 3473.87 440.261C3460.8 441.966 3448.59 444.736 3437.22 448.571C3426 452.264 3416.91 457.875 3409.95 465.403C3403.13 472.79 3399.72 482.875 3399.72 495.659C3399.72 513.131 3406.19 526.341 3419.11 535.29C3432.18 544.097 3448.73 548.5 3468.76 548.5ZM3835.82 592.818C3805.14 592.818 3778.72 585.574 3756.56 571.085C3734.4 556.597 3717.36 536.639 3705.42 511.213C3693.49 485.787 3687.53 456.739 3687.53 424.068C3687.53 390.83 3693.63 361.497 3705.85 336.071C3718.21 310.503 3735.39 290.545 3757.41 276.199C3779.57 261.71 3805.42 254.466 3834.97 254.466C3857.98 254.466 3878.72 258.727 3897.18 267.25C3915.65 275.773 3930.78 287.705 3942.57 303.045C3954.36 318.386 3961.67 336.284 3964.51 356.739H3914.23C3910.39 341.824 3901.87 328.614 3888.66 317.108C3875.59 305.46 3857.98 299.636 3835.82 299.636C3816.22 299.636 3799.03 304.75 3784.26 314.977C3769.63 325.062 3758.19 339.338 3749.95 357.804C3741.86 376.128 3737.81 397.648 3737.81 422.364C3737.81 447.648 3741.79 469.665 3749.74 488.415C3757.84 507.165 3769.2 521.724 3783.83 532.094C3798.61 542.463 3815.93 547.648 3835.82 547.648C3848.89 547.648 3860.75 545.375 3871.4 540.83C3882.06 536.284 3891.08 529.75 3898.46 521.227C3905.85 512.705 3911.11 502.477 3914.23 490.545H3964.51C3961.67 509.864 3954.64 527.264 3943.42 542.747C3932.34 558.088 3917.64 570.304 3899.32 579.395C3881.13 588.344 3859.97 592.818 3835.82 592.818ZM4084.9 466.682L4084.05 404.466H4094.27L4237.45 258.727H4299.67L4147.11 412.989H4142.85L4084.9 466.682ZM4038.02 586V149.636H4088.31V586H4038.02ZM4245.98 586L4118.14 424.068L4153.93 389.125L4309.9 586H4245.98Z" fill="black"/>
<rect x="1175" y="15" width="30" height="800" fill="black"/>
</svg>
