<svg width="2845" height="566" viewBox="0 0 2845 566" fill="none" xmlns="http://www.w3.org/2000/svg">
<path d="M251.645 132.134C249.94 114.946 242.625 101.594 229.699 92.0767C216.773 82.5596 199.23 77.8011 177.071 77.8011C162.014 77.8011 149.301 79.9318 138.932 84.1932C128.563 88.3125 120.608 94.0653 115.068 101.452C109.67 108.838 106.972 117.219 106.972 126.594C106.688 134.406 108.321 141.224 111.872 147.048C115.565 152.872 120.608 157.915 127 162.176C133.392 166.295 140.778 169.918 149.159 173.043C157.54 176.026 166.489 178.582 176.006 180.713L215.21 190.088C234.244 194.349 251.716 200.031 267.625 207.134C283.534 214.236 297.313 222.972 308.96 233.341C320.608 243.71 329.628 255.926 336.02 269.989C342.554 284.051 345.892 300.173 346.034 318.355C345.892 345.06 339.074 368.213 325.58 387.815C312.227 407.276 292.909 422.403 267.625 433.199C242.483 443.852 212.156 449.179 176.645 449.179C141.418 449.179 110.736 443.781 84.5994 432.986C58.6051 422.19 38.2926 406.21 23.6619 385.045C9.1733 363.739 1.57386 337.389 0.863636 305.997H90.1392C91.1335 320.628 95.3239 332.844 102.71 342.645C110.239 352.304 120.253 359.619 132.753 364.591C145.395 369.42 159.67 371.835 175.58 371.835C191.205 371.835 204.77 369.562 216.276 365.017C227.923 360.472 236.943 354.151 243.335 346.054C249.727 337.957 252.923 328.653 252.923 318.142C252.923 308.341 250.011 300.102 244.188 293.426C238.506 286.75 230.125 281.068 219.045 276.381C208.108 271.693 194.685 267.432 178.776 263.597L131.261 251.665C94.4716 242.716 65.4233 228.724 44.1165 209.69C22.8097 190.656 12.2273 165.017 12.3693 132.773C12.2273 106.352 19.2585 83.2699 33.4631 63.5256C47.8097 43.7812 67.483 28.3693 92.483 17.2898C117.483 6.21021 145.892 0.670438 177.71 0.670438C210.097 0.670438 238.364 6.21021 262.511 17.2898C286.801 28.3693 305.693 43.7812 319.188 63.5256C332.682 83.2699 339.642 106.139 340.068 132.134H251.645ZM497.153 253.795V443H406.386V115.727H492.891V173.469H496.727C503.971 154.435 516.116 139.378 533.161 128.298C550.207 117.077 570.874 111.466 595.164 111.466C617.891 111.466 637.707 116.437 654.61 126.381C671.514 136.324 684.653 150.528 694.028 168.994C703.403 187.318 708.09 209.193 708.09 234.619V443H617.323V250.812C617.465 230.784 612.352 215.159 601.982 203.938C591.613 192.574 577.337 186.892 559.156 186.892C546.94 186.892 536.144 189.52 526.769 194.776C517.536 200.031 510.292 207.702 505.036 217.787C499.923 227.73 497.295 239.733 497.153 253.795ZM872.952 449.179C852.071 449.179 833.463 445.557 817.128 438.312C800.793 430.926 787.866 420.06 778.349 405.713C768.974 391.224 764.287 373.185 764.287 351.594C764.287 333.412 767.625 318.142 774.301 305.784C780.977 293.426 790.068 283.483 801.574 275.955C813.08 268.426 826.148 262.744 840.778 258.909C855.551 255.074 871.034 252.375 887.227 250.812C906.261 248.824 921.602 246.977 933.25 245.273C944.898 243.426 953.349 240.727 958.605 237.176C963.861 233.625 966.489 228.369 966.489 221.409V220.131C966.489 206.636 962.227 196.196 953.705 188.81C945.324 181.423 933.392 177.73 917.909 177.73C901.574 177.73 888.577 181.352 878.918 188.597C869.259 195.699 862.866 204.648 859.741 215.443L775.793 208.625C780.054 188.739 788.435 171.551 800.935 157.062C813.435 142.432 829.557 131.21 849.301 123.398C869.188 115.443 892.199 111.466 918.335 111.466C936.517 111.466 953.918 113.597 970.537 117.858C987.298 122.119 1002.14 128.724 1015.07 137.673C1028.14 146.622 1038.43 158.128 1045.96 172.19C1053.49 186.111 1057.26 202.801 1057.26 222.261V443H971.176V397.616H968.619C963.364 407.844 956.332 416.864 947.526 424.676C938.719 432.347 928.136 438.384 915.778 442.787C903.42 447.048 889.145 449.179 872.952 449.179ZM898.946 386.537C912.298 386.537 924.088 383.909 934.315 378.653C944.543 373.256 952.568 366.011 958.392 356.92C964.216 347.83 967.128 337.531 967.128 326.026V291.295C964.287 293.142 960.381 294.847 955.409 296.409C950.58 297.83 945.111 299.179 939.003 300.457C932.895 301.594 926.787 302.659 920.679 303.653C914.571 304.506 909.031 305.287 904.06 305.997C893.406 307.56 884.102 310.045 876.148 313.455C868.193 316.864 862.014 321.48 857.611 327.304C853.207 332.986 851.006 340.088 851.006 348.611C851.006 360.969 855.48 370.415 864.429 376.949C873.52 383.341 885.026 386.537 898.946 386.537ZM1127.67 565.727V115.727H1217.16V170.699H1221.21C1225.19 161.892 1230.94 152.943 1238.47 143.852C1246.14 134.619 1256.08 126.949 1268.3 120.841C1280.66 114.591 1296 111.466 1314.32 111.466C1338.19 111.466 1360.2 117.716 1380.37 130.216C1400.54 142.574 1416.67 161.253 1428.74 186.253C1440.81 211.111 1446.85 242.29 1446.85 279.79C1446.85 316.295 1440.96 347.119 1429.17 372.261C1417.52 397.261 1401.61 416.224 1381.44 429.151C1361.41 441.935 1338.97 448.327 1314.11 448.327C1296.5 448.327 1281.51 445.415 1269.15 439.591C1256.94 433.767 1246.92 426.452 1239.11 417.645C1231.3 408.696 1225.33 399.676 1221.21 390.585H1218.44V565.727H1127.67ZM1216.52 279.364C1216.52 298.824 1219.22 315.798 1224.62 330.287C1230.02 344.776 1237.83 356.068 1248.06 364.165C1258.29 372.119 1270.71 376.097 1285.35 376.097C1300.12 376.097 1312.62 372.048 1322.85 363.952C1333.07 355.713 1340.81 344.349 1346.07 329.861C1351.47 315.23 1354.17 298.398 1354.17 279.364C1354.17 260.472 1351.54 243.852 1346.28 229.506C1341.03 215.159 1333.29 203.937 1323.06 195.841C1312.83 187.744 1300.26 183.696 1285.35 183.696C1270.57 183.696 1258.07 187.602 1247.85 195.415C1237.76 203.227 1230.02 214.307 1224.62 228.653C1219.22 243 1216.52 259.903 1216.52 279.364ZM1762.62 115.727C1760.06 94.1364 1749.69 77.375 1731.51 65.4432C1713.33 53.5114 1691.03 47.5454 1664.61 47.5454C1645.29 47.5454 1628.38 50.6704 1613.9 56.9204C1599.55 63.1704 1588.33 71.7642 1580.23 82.7017C1572.28 93.6392 1568.3 106.068 1568.3 119.989C1568.3 131.636 1571.07 141.651 1576.61 150.031C1582.29 158.27 1589.54 165.159 1598.34 170.699C1607.15 176.097 1616.38 180.571 1626.04 184.122C1635.7 187.531 1644.58 190.301 1652.67 192.432L1696.99 204.364C1708.36 207.347 1721 211.466 1734.92 216.722C1748.98 221.977 1762.4 229.151 1775.19 238.241C1788.12 247.19 1798.77 258.696 1807.15 272.759C1815.53 286.821 1819.72 304.08 1819.72 324.534C1819.72 348.114 1813.54 369.42 1801.18 388.455C1788.97 407.489 1771.07 422.616 1747.49 433.838C1724.05 445.06 1695.57 450.67 1662.05 450.67C1630.8 450.67 1603.74 445.628 1580.87 435.543C1558.14 425.457 1540.25 411.395 1527.18 393.355C1514.25 375.315 1506.94 354.364 1505.23 330.5H1559.78C1561.2 346.977 1566.74 360.614 1576.4 371.409C1586.2 382.062 1598.56 390.017 1613.47 395.273C1628.53 400.386 1644.72 402.943 1662.05 402.943C1682.22 402.943 1700.33 399.676 1716.38 393.142C1732.43 386.466 1745.15 377.233 1754.52 365.443C1763.9 353.511 1768.58 339.591 1768.58 323.682C1768.58 309.193 1764.54 297.403 1756.44 288.312C1748.34 279.222 1737.69 271.835 1724.48 266.153C1711.27 260.472 1696.99 255.5 1681.65 251.239L1627.96 235.898C1593.87 226.097 1566.88 212.105 1546.99 193.923C1527.11 175.741 1517.16 151.949 1517.16 122.545C1517.16 98.1136 1523.77 76.8068 1536.98 58.625C1550.33 40.3011 1568.23 26.0966 1590.67 16.0114C1613.26 5.78408 1638.47 0.670438 1666.31 0.670438C1694.44 0.670438 1719.44 5.71305 1741.31 15.7983C1763.19 25.7415 1780.52 39.3778 1793.3 56.7074C1806.23 74.0369 1813.04 93.7102 1813.75 115.727H1762.62ZM1996.09 450.67C1975.35 450.67 1956.53 446.764 1939.62 438.952C1922.72 430.997 1909.3 419.562 1899.35 404.648C1889.41 389.591 1884.44 371.409 1884.44 350.102C1884.44 331.352 1888.13 316.153 1895.52 304.506C1902.91 292.716 1912.78 283.483 1925.14 276.807C1937.49 270.131 1951.13 265.159 1966.04 261.892C1981.1 258.483 1996.23 255.784 2011.43 253.795C2031.31 251.239 2047.44 249.321 2059.79 248.043C2072.29 246.622 2081.39 244.278 2087.07 241.011C2092.89 237.744 2095.8 232.062 2095.8 223.966V222.261C2095.8 201.239 2090.05 184.903 2078.54 173.256C2067.18 161.608 2049.92 155.784 2026.77 155.784C2002.76 155.784 1983.94 161.04 1970.31 171.551C1956.67 182.062 1947.08 193.284 1941.54 205.216L1893.81 188.17C1902.34 168.284 1913.7 152.801 1927.91 141.722C1942.25 130.5 1957.88 122.687 1974.78 118.284C1991.83 113.739 2008.59 111.466 2025.06 111.466C2035.58 111.466 2047.65 112.744 2061.29 115.301C2075.06 117.716 2088.35 122.759 2101.13 130.429C2114.06 138.099 2124.78 149.676 2133.3 165.159C2141.83 180.642 2146.09 201.381 2146.09 227.375V443H2095.8V398.682H2093.25C2089.84 405.784 2084.16 413.384 2076.2 421.48C2068.25 429.577 2057.66 436.466 2044.45 442.148C2031.24 447.83 2015.12 450.67 1996.09 450.67ZM2003.76 405.5C2023.64 405.5 2040.41 401.594 2054.04 393.781C2067.82 385.969 2078.19 375.884 2085.15 363.526C2092.25 351.168 2095.8 338.17 2095.8 324.534V278.511C2093.67 281.068 2088.99 283.412 2081.74 285.543C2074.64 287.531 2066.4 289.307 2057.02 290.869C2047.79 292.29 2038.77 293.568 2029.97 294.705C2021.3 295.699 2014.27 296.551 2008.87 297.261C1995.8 298.966 1983.59 301.736 1972.22 305.571C1961 309.264 1951.91 314.875 1944.95 322.403C1938.13 329.79 1934.72 339.875 1934.72 352.659C1934.72 370.131 1941.19 383.341 1954.11 392.29C1967.18 401.097 1983.73 405.5 2003.76 405.5ZM2370.82 449.818C2340.14 449.818 2313.72 442.574 2291.56 428.085C2269.4 413.597 2252.36 393.639 2240.42 368.213C2228.49 342.787 2222.53 313.739 2222.53 281.068C2222.53 247.83 2228.63 218.497 2240.85 193.071C2253.21 167.503 2270.39 147.545 2292.41 133.199C2314.57 118.71 2340.42 111.466 2369.97 111.466C2392.98 111.466 2413.72 115.727 2432.18 124.25C2450.65 132.773 2465.78 144.705 2477.57 160.045C2489.36 175.386 2496.67 193.284 2499.51 213.739H2449.23C2445.39 198.824 2436.87 185.614 2423.66 174.108C2410.59 162.46 2392.98 156.636 2370.82 156.636C2351.22 156.636 2334.03 161.75 2319.26 171.977C2304.63 182.062 2293.19 196.338 2284.95 214.804C2276.86 233.128 2272.81 254.648 2272.81 279.364C2272.81 304.648 2276.79 326.665 2284.74 345.415C2292.84 364.165 2304.2 378.724 2318.83 389.094C2333.61 399.463 2350.93 404.648 2370.82 404.648C2383.89 404.648 2395.75 402.375 2406.4 397.83C2417.06 393.284 2426.08 386.75 2433.46 378.227C2440.85 369.705 2446.11 359.477 2449.23 347.545H2499.51C2496.67 366.864 2489.64 384.264 2478.42 399.747C2467.34 415.088 2452.64 427.304 2434.32 436.395C2416.13 445.344 2394.97 449.818 2370.82 449.818ZM2619.9 323.682L2619.05 261.466H2629.27L2772.45 115.727H2834.67L2682.11 269.989H2677.85L2619.9 323.682ZM2573.02 443V6.63635H2623.31V443H2573.02ZM2780.98 443L2653.14 281.068L2688.93 246.125L2844.9 443H2780.98Z" fill="black"/>
</svg>
