<svg width="5900" height="1316" viewBox="0 0 5900 1316" fill="none" xmlns="http://www.w3.org/2000/svg">
<path d="M7.95117 1082.08C12.6825 1029.74 17.2493 977.386 22.1953 925.069C26.4654 879.901 31.1663 834.774 35.6778 789.629C40.1885 744.492 44.7005 699.355 49.2118 654.218C53.7232 609.08 57.3397 563.828 63.1083 518.852C66.1764 494.931 70.3203 470.505 78.6442 448.035C95.2467 403.217 129.652 375.124 175.746 365.652C202.136 360.229 230.208 362.991 258.903 363.344C260.175 414.911 260.066 465.201 259.054 515.774C234.61 533.051 225.971 557.816 234.746 583.138C243.131 607.336 266.339 623.148 291.883 622.067C317.322 620.991 338.65 603.412 345.193 578.127C351.635 553.227 341.205 528.785 318.111 513.745C317.951 466.639 317.828 420.693 317.935 374.748C317.945 370.418 319.401 366.091 321.437 361.876C351.545 362.019 380.4 362.098 409.255 362.069C512.95 361.964 616.645 361.822 721.007 362.64C721.891 414.039 722.107 464.493 721.539 515.467C697.714 530.973 688.321 555.896 696.139 581.301C703.672 605.782 726.406 622.412 751.944 622.125C777.276 621.84 800.269 604.214 806.88 580.011C813.893 554.338 803.731 529.33 780.437 514.076C780.411 462.608 780.516 412.324 780.621 362.039C798.641 362.044 816.678 362.557 834.678 361.963C899.106 359.838 962.486 412.227 972.374 479.308C977.622 514.908 979.658 550.975 983.449 586.798C987.659 626.585 992.357 666.32 996.566 706.107C998.816 727.376 1000.3 748.726 1002.46 770.006C1005.78 802.727 1009.52 835.406 1012.82 868.129C1015.01 889.855 1016.52 911.648 1018.71 933.373C1021.97 965.652 1025.8 997.874 1028.92 1030.17C1030.51 1046.61 1031.08 1063.15 1031.5 1081.34C1027.33 1088.17 1023.43 1093.12 1020.26 1098.5C991.608 1147.15 947.78 1171.04 892.668 1171.21C644.234 1171.95 395.795 1171.91 147.361 1171.21C96.0988 1171.07 54.2389 1149.26 24.6707 1106.2C19.1323 1098.14 13.5261 1090.12 7.95117 1082.08Z" fill="#EC8824"/>
<path d="M7.09492 1082.82C13.5249 1090.12 19.1312 1098.14 24.6696 1106.2C54.2378 1149.26 96.0977 1171.07 147.36 1171.21C395.794 1171.91 644.233 1171.95 892.667 1171.21C947.779 1171.04 991.607 1147.15 1020.26 1098.5C1023.43 1093.12 1027.33 1088.17 1031.72 1082.55C1033.85 1091.15 1036.16 1100.23 1036.28 1109.33C1036.72 1142.69 1042.04 1177.26 1035.2 1209.17C1023.33 1264.54 984.777 1298.7 929.468 1312.53C921.362 1314.56 912.732 1315.27 904.344 1315.27C648.238 1315.41 392.132 1315.81 136.028 1315.04C83.6704 1314.88 45.3012 1287.93 18.3598 1243.36C-2.66961 1208.57 -1.92501 1171.32 2.59474 1133.09C4.53597 1116.67 5.06769 1100.08 7.09492 1082.82Z" fill="#E86629"/>
<path d="M320.185 361.761C319.401 366.09 317.945 370.417 317.935 374.747C317.828 420.692 317.95 466.638 318.002 515.119C317.912 523.939 318.119 530.243 317.691 536.503C316.585 552.722 304.143 564.556 288.816 564.293C273.921 564.036 261.914 552.599 260.626 537.005C260.036 529.864 260.158 522.665 259.958 515.491C260.066 465.201 260.175 414.91 260.146 363.345C260.896 326.322 259.018 290.703 270.534 255.541C292.363 188.884 332.881 138.533 393.848 104.339C439.067 78.9783 487.834 69.1594 539.203 72.6981C594.448 76.504 643.329 96.6557 686.49 131.518C723.425 161.352 750.892 197.949 765.125 243.103C772.58 266.752 776.452 291.694 780.071 316.327C782.145 330.443 780.469 345.11 780.551 360.784C780.516 412.323 780.41 462.608 780.254 515.385C780.055 525.074 780.571 532.358 779.622 539.446C777.66 554.092 764.784 564.675 750.499 564.231C735.953 563.778 724.236 552.791 722.974 537.872C722.331 530.266 722.514 522.59 722.323 514.946C722.107 464.492 721.89 414.038 721.053 361.407C719.614 340.393 720.383 321.325 717.68 302.762C709.727 248.161 682.239 204.582 637.84 172.325C598.119 143.465 553.585 129.919 504.012 134.77C433.572 141.663 380.905 176.369 345.125 236.722C322.283 275.253 317.49 317.881 320.185 361.761Z" fill="#2D4A60"/>
<path d="M259.053 515.773C260.158 522.665 260.035 529.864 260.625 537.005C261.913 552.599 273.92 564.036 288.816 564.293C304.143 564.557 316.584 552.722 317.691 536.503C318.118 530.243 317.911 523.939 318.103 516.28C341.204 528.784 351.634 553.226 345.192 578.126C338.649 603.411 317.321 620.991 291.882 622.067C266.338 623.147 243.13 607.335 234.745 583.138C225.97 557.816 234.609 533.05 259.053 515.773Z" fill="#E5EDED"/>
<path d="M721.539 515.467C722.514 522.591 722.331 530.266 722.974 537.872C724.236 552.791 735.953 563.778 750.499 564.231C764.784 564.676 777.66 554.092 779.621 539.447C780.571 532.358 780.055 525.074 780.386 516.569C803.731 529.329 813.893 554.338 806.88 580.01C800.269 604.213 777.275 621.84 751.944 622.124C726.405 622.411 703.672 605.781 696.138 581.3C688.32 555.895 697.713 530.972 721.539 515.467Z" fill="#E6EDED"/>
<path d="M606.535 781.93C605.114 767.607 599.018 756.48 588.246 748.55C577.475 740.619 562.856 736.653 544.39 736.653C531.843 736.653 521.248 738.429 512.607 741.98C503.966 745.413 497.337 750.207 492.721 756.362C488.223 762.517 485.974 769.501 485.974 777.314C485.737 783.824 487.098 789.506 490.058 794.359C493.135 799.213 497.337 803.415 502.664 806.966C507.991 810.399 514.146 813.417 521.13 816.021C528.114 818.507 535.571 820.638 543.502 822.413L576.173 830.226C592.034 833.777 606.594 838.512 619.852 844.43C633.109 850.349 644.591 857.629 654.298 866.27C664.004 874.911 671.521 885.091 676.847 896.81C682.292 908.528 685.074 921.963 685.192 937.115C685.074 959.369 679.392 978.663 668.147 994.998C657.02 1011.22 640.922 1023.82 619.852 1032.82C598.9 1041.7 573.628 1046.13 544.035 1046.13C514.679 1046.13 489.111 1041.64 467.33 1032.64C445.668 1023.64 428.741 1010.33 416.549 992.69C404.475 974.935 398.142 952.977 397.55 926.817H471.947C472.775 939.009 476.267 949.189 482.423 957.356C488.696 965.406 497.041 971.502 507.458 975.645C517.993 979.669 529.889 981.682 543.147 981.682C556.168 981.682 567.472 979.788 577.06 976C586.767 972.212 594.283 966.945 599.61 960.197C604.937 953.45 607.6 945.697 607.6 936.937C607.6 928.77 605.174 921.904 600.32 916.341C595.585 910.777 588.602 906.043 579.369 902.136C570.254 898.23 559.068 894.679 545.81 891.483L506.215 881.54C475.557 874.082 451.35 862.423 433.594 846.561C415.839 830.699 407.02 809.333 407.138 782.463C407.02 760.446 412.879 741.211 424.717 724.757C436.672 708.303 453.067 695.46 473.9 686.227C494.733 676.994 518.407 672.378 544.923 672.378C571.911 672.378 595.467 676.994 615.59 686.227C635.832 695.46 651.575 708.303 662.82 724.757C674.066 741.211 679.866 760.268 680.221 781.93H606.535Z" fill="white"/>
<path d="M1493.64 824C1507.64 849.333 1523.31 871.333 1540.64 890C1558.64 908.667 1577.98 923 1598.64 933C1619.98 943 1642.31 948 1665.64 948C1690.31 948 1710.64 942 1726.64 930C1742.64 917.333 1750.64 900.333 1750.64 879C1750.64 861 1745.98 846.667 1736.64 836C1727.31 824.667 1712.31 814 1691.64 804C1670.98 794 1643.64 782.667 1609.64 770C1592.98 764 1573.64 755.667 1551.64 745C1530.31 734.333 1509.98 720.667 1490.64 704C1471.31 686.667 1455.31 666 1442.64 642C1429.98 617.333 1423.64 587.667 1423.64 553C1423.64 511.667 1434.31 476 1455.64 446C1477.64 416 1506.98 393.333 1543.64 378C1580.98 362 1622.31 354 1667.64 354C1714.31 354 1754.64 361.667 1788.64 377C1823.31 392.333 1851.98 411.667 1874.64 435C1897.31 458.333 1914.64 482 1926.64 506L1797.64 578C1787.64 561.333 1775.98 547 1762.64 535C1749.98 522.333 1735.64 512.667 1719.64 506C1704.31 498.667 1687.64 495 1669.64 495C1645.64 495 1627.31 500.333 1614.64 511C1601.98 521 1595.64 533.667 1595.64 549C1595.64 565 1601.64 579 1613.64 591C1626.31 603 1643.98 614 1666.64 624C1689.98 634 1717.98 644.667 1750.64 656C1775.31 665.333 1798.31 676.333 1819.64 689C1840.98 701 1859.64 715.667 1875.64 733C1892.31 750.333 1905.31 770.333 1914.64 793C1923.98 815.667 1928.64 841.667 1928.64 871C1928.64 906.333 1921.31 938 1906.64 966C1892.64 993.333 1873.31 1016.33 1848.64 1035C1824.64 1053.67 1796.98 1067.67 1765.64 1077C1734.98 1087 1703.31 1092 1670.64 1092C1625.31 1092 1582.98 1084 1543.64 1068C1504.98 1051.33 1471.31 1029 1442.64 1001C1413.98 973 1391.64 942.333 1375.64 909L1493.64 824ZM2325.64 790C2325.64 762.667 2320.31 741.667 2309.64 727C2299.64 712.333 2282.64 705 2258.64 705C2242.64 705 2228.64 708.333 2216.64 715C2204.64 721.667 2195.31 731.333 2188.64 744C2181.98 756.667 2178.64 772 2178.64 790V1070H2026.64V610H2178.64V679C2191.98 653.667 2209.98 634 2232.64 620C2255.98 606 2284.64 599 2318.64 599C2375.98 599 2417.64 614.333 2443.64 645C2469.64 675.667 2482.64 718.667 2482.64 774V1070H2325.64V790ZM2718.84 926C2718.84 938 2721.84 948.333 2727.84 957C2733.84 965 2741.84 971.333 2751.84 976C2761.84 980 2772.84 982 2784.84 982C2802.17 982 2818.17 978.333 2832.84 971C2847.51 963.667 2859.51 952.667 2868.84 938C2878.17 923.333 2882.84 905.333 2882.84 884L2898.84 944C2898.84 973.333 2890.84 998.333 2874.84 1019C2858.84 1039 2838.17 1054.33 2812.84 1065C2787.51 1075 2760.17 1080 2730.84 1080C2701.51 1080 2674.17 1074.67 2648.84 1064C2624.17 1052.67 2604.17 1036 2588.84 1014C2574.17 992 2566.84 965.333 2566.84 934C2566.84 890 2582.51 855.333 2613.84 830C2645.17 804 2689.51 791 2746.84 791C2774.84 791 2799.84 793.667 2821.84 799C2844.51 804.333 2863.84 811 2879.84 819C2895.84 827 2907.84 835.333 2915.84 844V911C2899.84 899 2881.17 890 2859.84 884C2839.17 877.333 2817.17 874 2793.84 874C2775.84 874 2761.51 876 2750.84 880C2740.17 884 2732.17 890 2726.84 898C2721.51 905.333 2718.84 914.667 2718.84 926ZM2651.84 751L2600.84 650C2626.84 637.333 2658.17 625.333 2694.84 614C2731.51 602.667 2771.51 597 2814.84 597C2855.51 597 2891.84 603 2923.84 615C2955.84 626.333 2981.17 643 2999.84 665C3018.51 687 3027.84 714 3027.84 746V1070H2882.84V780C2882.84 768.667 2880.84 759 2876.84 751C2873.51 742.333 2868.17 735 2860.84 729C2853.51 723 2844.17 718.667 2832.84 716C2822.17 713.333 2809.84 712 2795.84 712C2775.17 712 2754.84 714.333 2734.84 719C2715.51 723.667 2698.51 729.333 2683.84 736C2669.17 742 2658.51 747 2651.84 751ZM3290.9 1290H3139.9V610H3290.9V1290ZM3666.9 840C3666.9 893.333 3656.24 938.333 3634.9 975C3614.24 1011.67 3587.24 1039.33 3553.9 1058C3521.24 1076.67 3485.9 1086 3447.9 1086C3407.9 1086 3373.24 1076 3343.9 1056C3315.24 1035.33 3293.24 1006.67 3277.9 970C3262.57 932.667 3254.9 889.333 3254.9 840C3254.9 790 3262.57 746.667 3277.9 710C3293.24 673.333 3315.24 645 3343.9 625C3373.24 604.333 3407.9 594 3447.9 594C3485.9 594 3521.24 603.333 3553.9 622C3587.24 640.667 3614.24 668.333 3634.9 705C3656.24 741 3666.9 786 3666.9 840ZM3507.9 840C3507.9 816 3502.9 795.667 3492.9 779C3482.9 762.333 3469.57 749.667 3452.9 741C3436.24 732.333 3417.9 728 3397.9 728C3380.57 728 3363.57 732.333 3346.9 741C3330.9 749 3317.57 761.333 3306.9 778C3296.24 794.667 3290.9 815.333 3290.9 840C3290.9 864.667 3296.24 885.333 3306.9 902C3317.57 918.667 3330.9 931.333 3346.9 940C3363.57 948 3380.57 952 3397.9 952C3417.9 952 3436.24 947.667 3452.9 939C3469.57 930.333 3482.9 917.667 3492.9 901C3502.9 884.333 3507.9 864 3507.9 840ZM3805.09 858C3821.09 886 3837.76 910.667 3855.09 932C3873.09 953.333 3893.09 970 3915.09 982C3937.09 994 3962.09 1000 3990.09 1000C4027.42 1000 4057.42 989.667 4080.09 969C4102.76 948.333 4114.09 922 4114.09 890C4114.09 858.667 4106.76 833.667 4092.09 815C4077.42 796.333 4058.09 781.333 4034.09 770C4010.76 758 3985.76 747.333 3959.09 738C3941.76 732 3922.42 724.333 3901.09 715C3879.76 705 3859.42 692.667 3840.09 678C3820.76 662.667 3804.76 644 3792.09 622C3780.09 600 3774.09 573 3774.09 541C3774.09 506.333 3782.76 475.333 3800.09 448C3817.42 420.667 3841.42 399.333 3872.09 384C3902.76 368 3937.76 360 3977.09 360C4015.09 360 4048.09 367.333 4076.09 382C4104.76 396 4129.09 414.333 4149.09 437C4169.09 459 4184.76 482.333 4196.09 507L4123.09 549C4114.42 531.667 4103.42 514.667 4090.09 498C4076.76 481.333 4060.42 467.667 4041.09 457C4022.42 446.333 3999.42 441 3972.09 441C3934.09 441 3906.42 450.333 3889.09 469C3871.76 487 3863.09 507.333 3863.09 530C3863.09 549.333 3868.09 567.333 3878.09 584C3888.09 600 3904.76 615.333 3928.09 630C3952.09 644 3984.42 658 4025.09 672C4043.76 678.667 4063.42 687.333 4084.09 698C4104.76 708.667 4123.76 722.333 4141.09 739C4159.09 755 4173.76 774.667 4185.09 798C4196.42 820.667 4202.09 848 4202.09 880C4202.09 910.667 4196.09 938.333 4184.09 963C4172.76 987.667 4156.76 1008.67 4136.09 1026C4116.09 1043.33 4093.09 1056.67 4067.09 1066C4041.76 1075.33 4015.09 1080 3987.09 1080C3949.09 1080 3913.76 1072 3881.09 1056C3849.09 1039.33 3820.76 1017.67 3796.09 991C3772.09 963.667 3752.42 934.667 3737.09 904L3805.09 858ZM4357.94 928C4357.94 945.333 4361.94 960.333 4369.94 973C4378.61 985.667 4390.27 995.333 4404.94 1002C4420.27 1008 4437.61 1011 4456.94 1011C4481.61 1011 4503.61 1006 4522.94 996C4542.94 986 4558.61 972 4569.94 954C4581.94 935.333 4587.94 914 4587.94 890L4603.94 950C4603.94 979.333 4594.94 1003.67 4576.94 1023C4559.61 1042.33 4537.94 1056.67 4511.94 1066C4486.61 1075.33 4461.27 1080 4435.94 1080C4407.94 1080 4381.61 1074.33 4356.94 1063C4332.94 1051 4313.61 1034 4298.94 1012C4284.27 990 4276.94 963.333 4276.94 932C4276.94 887.333 4292.61 851.667 4323.94 825C4355.94 797.667 4400.27 784 4456.94 784C4490.27 784 4517.94 788 4539.94 796C4562.61 803.333 4580.61 812 4593.94 822C4607.27 831.333 4616.27 839 4620.94 845V892C4597.61 876 4573.61 864.667 4548.94 858C4524.27 850.667 4497.94 847 4469.94 847C4443.94 847 4422.61 850.333 4405.94 857C4389.94 863.667 4377.94 873 4369.94 885C4361.94 897 4357.94 911.333 4357.94 928ZM4345.94 716L4306.94 657C4324.27 644.333 4347.94 631.667 4377.94 619C4408.61 606.333 4445.27 600 4487.94 600C4523.94 600 4555.27 605.667 4581.94 617C4609.27 627.667 4630.27 643.333 4644.94 664C4660.27 684.667 4667.94 710 4667.94 740V1070H4587.94V751C4587.94 735 4585.27 722 4579.94 712C4574.61 701.333 4566.94 693 4556.94 687C4547.61 681 4536.61 676.667 4523.94 674C4511.27 671.333 4497.94 670 4483.94 670C4461.27 670 4440.61 672.667 4421.94 678C4403.94 683.333 4388.61 689.667 4375.94 697C4363.27 704.333 4353.27 710.667 4345.94 716ZM4839.39 840C4839.39 872 4846.05 900.333 4859.39 925C4873.39 949.667 4892.05 969.333 4915.39 984C4939.39 998 4966.39 1005 4996.39 1005C5021.05 1005 5044.05 1001.33 5065.39 994C5087.39 986 5106.39 975.667 5122.39 963C5138.39 949.667 5149.72 935.667 5156.39 921V1021C5140.39 1039.67 5117.39 1054.33 5087.39 1065C5058.05 1075 5027.72 1080 4996.39 1080C4951.72 1080 4911.39 1069.67 4875.39 1049C4839.39 1028.33 4810.72 1000 4789.39 964C4768.72 927.333 4758.39 886 4758.39 840C4758.39 793.333 4768.72 752 4789.39 716C4810.72 680 4839.39 651.667 4875.39 631C4911.39 610.333 4951.72 600 4996.39 600C5027.72 600 5058.05 605.333 5087.39 616C5117.39 626 5140.39 640.333 5156.39 659V759C5149.72 743.667 5138.39 729.667 5122.39 717C5106.39 704.333 5087.39 694.333 5065.39 687C5044.05 679 5021.05 675 4996.39 675C4966.39 675 4939.39 682 4915.39 696C4892.05 710 4873.39 729.667 4859.39 755C4846.05 779.667 4839.39 808 4839.39 840ZM5275.93 290H5355.93V1070H5275.93V290ZM5525.93 610H5625.93L5425.93 800L5645.93 1070H5545.93L5325.93 800L5525.93 610Z" fill="black"/>
</svg>
