<svg width="22" height="22" viewBox="0 0 22 22" fill="none" xmlns="http://www.w3.org/2000/svg">
<path d="M18 2C18 3.10457 18.8954 4 20 4C21.1046 4 22 3.10457 22 2C22 0.895431 21.1046 0 20 0C18.8954 0 18 0.895431 18 2Z" fill="#6C63FF"/>
<path d="M0 2C0 3.10457 0.895431 4 2 4C3.10457 4 4 3.10457 4 2C4 0.895431 3.10457 0 2 0C0.895431 0 0 0.895431 0 2Z" fill="#6C63FF"/>
<path d="M0 20C0 21.1046 0.895431 22 2 22C3.10457 22 4 21.1046 4 20C4 18.8954 3.10457 18 2 18C0.895431 18 0 18.8954 0 20Z" fill="#6C63FF"/>
<path d="M18 20C18 21.1046 18.8954 22 20 22C21.1046 22 22 21.1046 22 20C22 18.8954 21.1046 18 20 18C18.8954 18 18 18.8954 18 20Z" fill="#6C63FF"/>
<path d="M12 20C12 21.1046 12.8954 22 14 22C15.1046 22 16 21.1046 16 20C16 18.8954 15.1046 18 14 18C12.8954 18 12 18.8954 12 20Z" fill="#6C63FF"/>
<path d="M6 20C6 21.1046 6.89543 22 8 22C9.10457 22 10 21.1046 10 20C10 18.8954 9.10457 18 8 18C6.89543 18 6 18.8954 6 20Z" fill="#6C63FF"/>
<path d="M0 8C0 9.10457 0.895431 10 2 10C3.10457 10 4 9.10457 4 8C4 6.89543 3.10457 6 2 6C0.895431 6 0 6.89543 0 8Z" fill="#6C63FF"/>
<path d="M18 14C18 15.1046 18.8954 16 20 16C21.1046 16 22 15.1046 22 14C22 12.8954 21.1046 12 20 12C18.8954 12 18 12.8954 18 14Z" fill="#6C63FF"/>
<path d="M18 8C18 9.10457 18.8954 10 20 10C21.1046 10 22 9.10457 22 8C22 6.89543 21.1046 6 20 6C18.8954 6 18 6.89543 18 8Z" fill="#6C63FF"/>
<path d="M0 14C0 15.1046 0.895431 16 2 16C3.10457 16 4 15.1046 4 14C4 12.8954 3.10457 12 2 12C0.895431 12 0 12.8954 0 14Z" fill="#6C63FF"/>
<path d="M6 14C6 15.1046 6.89543 16 8 16C9.10457 16 10 15.1046 10 14C10 12.8954 9.10457 12 8 12C6.89543 12 6 12.8954 6 14Z" fill="#6C63FF"/>
<path d="M12 2C12 3.10457 12.8954 4 14 4C15.1046 4 16 3.10457 16 2C16 0.895431 15.1046 0 14 0C12.8954 0 12 0.895431 12 2Z" fill="#6C63FF"/>
<path d="M12 8C12 9.10457 12.8954 10 14 10C15.1046 10 16 9.10457 16 8C16 6.89543 15.1046 6 14 6C12.8954 6 12 6.89543 12 8Z" fill="#6C63FF"/>
<path d="M12 14C12 15.1046 12.8954 16 14 16C15.1046 16 16 15.1046 16 14C16 12.8954 15.1046 12 14 12C12.8954 12 12 12.8954 12 14Z" fill="#6C63FF"/>
<path d="M6 2C6 3.10457 6.89543 4 8 4C9.10457 4 10 3.10457 10 2C10 0.895431 9.10457 0 8 0C6.89543 0 6 0.895431 6 2Z" fill="#6C63FF"/>
<path d="M6 8C6 9.10457 6.89543 10 8 10C9.10457 10 10 9.10457 10 8C10 6.89543 9.10457 6 8 6C6.89543 6 6 6.89543 6 8Z" fill="#6C63FF"/>
</svg>
